<svg width="166" height="90" viewBox="0 0 166 90" fill="none" xmlns="http://www.w3.org/2000/svg">
<g clip-path="url(#clip0_2842_29929)">
<path d="M33.6999 21.7687C34.7095 22.0411 35.645 22.2644 36.5631 22.5449C37.548 22.8457 38.5175 22.7696 39.6801 22.4357C39.815 24.7051 40.1576 26.8648 39.9736 29.0233C39.622 29.1072 39.4891 28.9975 39.4364 28.8219C38.3392 25.165 35.5441 23.4662 32.1423 22.5517C30.101 22.003 28.0034 21.9511 25.9213 22.3986C22.8978 23.0484 20.8732 24.8386 20.0979 27.8645C19.2897 31.019 20.1224 33.742 22.6097 35.8642C24.657 37.6109 27.1253 38.5889 29.6121 39.5008C32.5754 40.5874 35.5812 41.5635 38.4052 43.0033C40.1873 43.9119 41.8832 44.9537 43.3307 46.3505C47.2058 50.0898 48.0338 55.9831 45.4646 61.357C43.6339 65.186 40.532 67.5993 36.6724 69.0187C30.1595 71.4139 23.7369 71.2317 17.6257 67.721C13.8564 65.5558 11.6691 62.2467 11.514 57.8137C11.3475 53.0555 13.7525 49.7375 17.7707 47.5772C24.3528 44.0384 33.8719 45.5784 38.7181 51.9648C39.3815 52.839 39.8973 53.7824 40.0246 54.8919C39.7575 54.9712 39.6469 54.872 39.5958 54.7491C37.9222 50.7243 34.7014 48.5803 30.7067 47.402C27.3283 46.4054 23.9393 46.3573 20.5887 47.5182C16.6576 48.8803 13.8218 51.3655 13.1022 55.6509C12.3869 59.9099 13.9513 63.3429 17.2912 66.016C19.9425 68.1381 23.0464 69.0428 26.3297 69.381C30.8968 69.8514 35.0922 68.97 38.7699 65.9558C44.2561 61.4594 45.0202 50.8305 37.3784 46.4105C34.9851 45.0262 32.4378 44.0218 29.8502 43.0985C26.5854 41.9336 23.2989 40.8267 20.4074 38.8221C16.9223 36.406 15.3714 32.9228 16.2558 29.1236C17.0969 25.511 19.5521 23.3255 22.8879 22.0721C26.4129 20.7475 30.0101 20.8267 33.6999 21.7687Z" fill="black"/>
<path d="M61.2636 44.5688C60.0753 47.9965 58.9377 51.3557 57.7337 54.6908C57.4366 55.5138 57.3799 56.1326 58.2421 56.5845C58.3943 56.6642 58.4809 56.8272 58.4623 57.0837C58.0418 57.5606 57.6136 56.9803 57.1147 57.0294C56.5713 57.7633 56.5569 58.5897 56.9743 59.397C57.4166 60.2525 58.4559 60.1175 59.1469 60.7356C56.7594 60.7356 54.3719 60.7356 51.9033 60.7356C52.0891 60.1409 52.5282 60.2281 52.8545 60.1359C54.3241 59.7203 55.7791 57.8833 55.8534 56.3814C55.8742 55.9623 55.6049 55.7625 55.3713 55.5227C52.3853 52.457 51.5324 48.7853 52.6881 44.7507C53.9242 40.4353 56.9898 37.8779 61.2716 36.8445C62.3341 36.588 62.9113 36.1936 63.2357 35.1258C63.9659 32.7221 64.7846 30.3423 65.6618 27.9883C66.0336 26.9909 65.9375 26.1542 65.4581 25.2497C64.622 23.6723 63.517 22.5058 61.6293 22.3367C61.3086 22.308 60.9233 22.3314 60.7496 21.8321C61.1307 21.2514 61.7801 21.4854 62.3004 21.4209C65.2715 21.0526 67.6771 22.5308 68.8749 25.2615C73.5351 35.8859 78.1933 46.5116 82.9318 57.1008C84.9628 61.6396 87.9873 65.3766 92.461 67.7397C95.4016 69.293 98.5361 70.0596 101.876 69.8826C102.217 69.8645 102.559 69.869 102.9 69.877C102.952 69.8783 103.003 69.9558 103.11 70.0445C102.938 70.561 102.44 70.4334 102.1 70.4727C93.8864 71.4243 85.264 67.9206 80.723 59.9778C78.3425 55.8141 76.7386 51.2832 74.7542 46.9319C73.8973 45.0528 73.0844 43.1533 72.2702 41.255C72.0587 40.7617 71.7401 40.3834 71.3287 40.0548C69.4144 38.5257 67.2084 37.7697 64.8025 37.5029C64.035 37.4178 63.6281 37.6497 63.3787 38.4394C62.7361 40.4739 61.9929 42.4763 61.2636 44.5688ZM53.6441 50.2362C54.1727 51.9444 54.8299 53.5775 56.3429 54.9482C58.3404 49.1665 60.287 43.532 62.2337 37.8976C62.1254 37.8315 62.0171 37.7654 61.9088 37.6993C59.4325 38.1816 57.3316 39.3933 55.707 41.3403C53.591 43.8762 53.0527 46.8509 53.6441 50.2362ZM70.5986 37.339C69.3832 34.5163 68.1678 31.6936 66.8349 28.5979C65.8635 31.3782 64.9974 33.8568 64.0781 36.4877C66.6766 36.5558 68.9157 37.2603 71.1732 38.6912C70.9206 38.1009 70.7872 37.789 70.5986 37.339Z" fill="black"/>
<path d="M89.686 48.7323C92.604 57.1083 100.126 62.2884 108.585 61.8003C110.211 61.7065 111.795 61.3771 113.238 60.6054C115.3 59.5019 115.756 58.3853 115.378 56.5475C114.906 54.2537 116.655 52.6593 118.77 53.2912C120.341 53.7607 121.055 55.3045 120.372 56.8188C119.814 58.0567 118.783 58.8824 117.739 59.6646C115.073 61.6617 111.985 62.5704 108.741 62.9092C102.688 63.5414 97.1433 62.1131 92.3109 58.3388C87.6562 54.7033 85.0937 49.8983 84.5669 43.9644C83.4979 31.9251 92.1603 22.9889 103.178 21.6568C107.49 21.1354 111.575 21.9007 115.562 23.4787C116.644 23.907 117.709 24.4544 119.116 23.872C119.116 26.1747 119.116 28.3007 119.116 30.4452C118.861 30.5235 118.807 30.2987 118.738 30.1084C117.48 26.6592 114.888 24.5945 111.55 23.5164C102.991 20.7524 94.0019 24.3958 90.1613 32.8916C88.8443 35.8049 88.4255 38.8753 88.5336 42.0595C88.6103 44.3196 89.0021 46.5051 89.686 48.7323Z" fill="black"/>
<path d="M143.707 24.8966C143.312 24.4648 142.881 24.2928 142.384 24.2323C142.063 24.1932 141.589 24.2162 141.656 23.7247C141.715 23.2809 142.172 23.35 142.501 23.3457C143.701 23.3303 144.902 23.3319 146.102 23.3306C147.2 23.3295 148.297 23.3296 149.395 23.3367C149.627 23.3382 149.889 23.3035 150.006 23.6178C149.89 24.1033 149.438 24.0268 149.104 24.1189C148.288 24.3445 147.855 24.8516 147.687 25.6962C147.469 26.7954 147.561 27.8961 147.559 28.9934C147.541 38.056 147.528 47.1188 147.564 56.1814C147.571 57.8381 147.392 59.7244 149.881 60.0429C149.161 60.573 143.099 60.646 142.104 60.2449C142.068 60.0709 142.178 59.9975 142.312 59.945C143.966 59.2968 144.168 59.0494 144.178 57.2179C144.2 53.0485 144.186 48.8789 144.194 44.7094C144.196 43.8494 144.206 42.988 144.256 42.1298C144.295 41.4526 144.022 41.2321 143.357 41.2398C140.476 41.2729 137.594 41.2692 134.713 41.2709C132.895 41.272 131.078 41.2635 129.26 41.2483C128.897 41.2453 128.413 41.3221 128.389 40.7784C128.36 40.139 128.882 40.2531 129.281 40.2461C133.803 40.1662 138.325 40.0921 142.845 40.2744C143.797 40.3128 144.197 40.0452 144.194 39.0177C144.185 35.196 144.26 31.3742 144.28 27.5523C144.285 26.6606 144.255 25.7565 143.707 24.8966Z" fill="black"/>
<path d="M135.312 85.352C134.96 85.352 134.725 85.2293 134.608 84.984C134.491 84.728 134.432 84.4453 134.432 84.136C134.432 83.9227 134.448 83.7147 134.48 83.512C134.512 83.2987 134.544 83.1227 134.576 82.984C134.661 82.5787 134.8 82.0987 134.992 81.544C135.184 80.9787 135.403 80.3867 135.648 79.768C135.904 79.1387 136.171 78.52 136.448 77.912C136.725 77.2933 136.992 76.7173 137.248 76.184C137.515 75.64 137.749 75.176 137.952 74.792C137.707 74.8027 137.424 74.8027 137.104 74.792C136.784 74.7707 136.453 74.76 136.112 74.76C135.525 74.76 134.944 74.808 134.368 74.904C133.803 74.9893 133.339 75.1973 132.976 75.528C132.805 75.688 132.683 75.8587 132.608 76.04C132.533 76.2213 132.496 76.4027 132.496 76.584C132.496 76.7867 132.528 76.984 132.592 77.176C132.603 77.1973 132.608 77.224 132.608 77.256C132.608 77.3627 132.555 77.416 132.448 77.416C132.384 77.416 132.336 77.3893 132.304 77.336C132.197 77.1653 132.117 76.9947 132.064 76.824C132.021 76.6427 132 76.4667 132 76.296C132 75.9973 132.053 75.7147 132.16 75.448C132.267 75.1813 132.395 74.9627 132.544 74.792C132.917 74.3547 133.424 74.0667 134.064 73.928C134.704 73.7787 135.371 73.704 136.064 73.704C136.597 73.704 137.115 73.7253 137.616 73.768C138.128 73.8107 138.581 73.8427 138.976 73.864C139.349 73.8853 139.813 73.9227 140.368 73.976C140.923 74.0187 141.461 74.04 141.984 74.04C142.453 74.04 142.875 74.008 143.248 73.944C143.621 73.88 143.893 73.7627 144.064 73.592C144.096 73.656 144.112 73.7307 144.112 73.816C144.112 74.04 143.984 74.2587 143.728 74.472C143.472 74.6853 143.125 74.8293 142.688 74.904C142.549 74.9253 142.389 74.9413 142.208 74.952C142.037 74.9627 141.856 74.968 141.664 74.968C141.344 74.968 141.024 74.9627 140.704 74.952C140.384 74.9307 140.101 74.9093 139.856 74.888C139.611 74.8667 139.445 74.8613 139.36 74.872C139.296 74.968 139.195 75.144 139.056 75.4C138.928 75.656 138.789 75.9333 138.64 76.232C138.491 76.5307 138.357 76.8027 138.24 77.048C138.037 77.4747 137.824 77.9547 137.6 78.488C137.376 79.0213 137.163 79.56 136.96 80.104C136.757 80.648 136.581 81.1653 136.432 81.656C136.293 82.1467 136.203 82.568 136.16 82.92C136.149 82.952 136.144 82.9893 136.144 83.032C136.144 83.064 136.144 83.096 136.144 83.128C136.144 83.3307 136.181 83.5067 136.256 83.656C136.341 83.7947 136.469 83.864 136.64 83.864C136.789 83.864 136.971 83.784 137.184 83.624C137.397 83.464 137.643 83.1973 137.92 82.824C137.973 82.76 138.021 82.728 138.064 82.728C138.128 82.728 138.16 82.7813 138.16 82.888C138.16 82.9627 138.133 83.064 138.08 83.192C138.037 83.32 137.957 83.4693 137.84 83.64C137.744 83.7787 137.589 83.9653 137.376 84.2C137.163 84.424 136.955 84.616 136.752 84.776C136.571 84.9253 136.347 85.0587 136.08 85.176C135.813 85.2933 135.557 85.352 135.312 85.352ZM143.815 85.096C143.484 85.096 143.255 84.968 143.127 84.712C143.009 84.456 142.951 84.1413 142.951 83.768C142.951 83.4267 142.983 83.0907 143.047 82.76C143.079 82.6107 143.111 82.4613 143.143 82.312C143.185 82.152 143.233 81.9867 143.287 81.816C143.105 82.1467 142.913 82.4667 142.711 82.776C142.519 83.0853 142.321 83.3573 142.119 83.592C141.777 84.008 141.415 84.3547 141.031 84.632C140.657 84.9093 140.284 85.048 139.911 85.048C139.612 85.048 139.356 84.9413 139.143 84.728C138.94 84.504 138.839 84.12 138.839 83.576C138.839 83.0213 138.935 82.4507 139.127 81.864C139.319 81.2773 139.585 80.7333 139.927 80.232C140.279 79.72 140.689 79.3093 141.159 79C141.639 78.6907 142.161 78.536 142.727 78.536C142.908 78.536 143.105 78.5627 143.319 78.616C143.532 78.6693 143.729 78.7707 143.911 78.92C144.092 79.0587 144.215 79.256 144.279 79.512C144.289 79.4907 144.3 79.4747 144.311 79.464C144.332 79.4533 144.348 79.4427 144.359 79.432C144.508 79.1973 144.679 79 144.871 78.84C145.063 78.68 145.276 78.6 145.511 78.6C145.628 78.6 145.793 78.6053 146.007 78.616C146.22 78.6267 146.375 78.6267 146.471 78.616C146.417 78.6587 146.343 78.744 146.247 78.872C146.161 79 146.081 79.1333 146.007 79.272C145.932 79.4 145.873 79.5013 145.831 79.576C145.543 80.1307 145.281 80.68 145.047 81.224C144.812 81.768 144.631 82.2907 144.503 82.792C144.471 82.8987 144.449 83 144.439 83.096C144.428 83.1813 144.423 83.2667 144.423 83.352C144.423 83.6293 144.513 83.768 144.695 83.768C144.865 83.768 145.079 83.6613 145.335 83.448C145.708 83.1493 146.033 82.776 146.311 82.328C146.599 81.88 146.849 81.448 147.063 81.032C147.105 80.9573 147.143 80.92 147.175 80.92C147.239 80.92 147.271 81.0107 147.271 81.192C147.271 81.2773 147.255 81.3733 147.223 81.48C147.201 81.5867 147.164 81.688 147.111 81.784C146.961 82.04 146.764 82.3547 146.519 82.728C146.284 83.1013 146.017 83.4693 145.719 83.832C145.42 84.184 145.105 84.4827 144.775 84.728C144.455 84.9733 144.135 85.096 143.815 85.096ZM140.631 83.704C140.663 83.7147 140.711 83.72 140.775 83.72C140.977 83.72 141.196 83.6347 141.431 83.464C141.665 83.2933 141.9 83.0747 142.135 82.808C142.369 82.5307 142.577 82.2533 142.759 81.976C143.228 81.2293 143.575 80.6693 143.799 80.296C144.023 79.9227 144.151 79.7093 144.183 79.656C144.129 79.4747 144.033 79.3413 143.895 79.256C143.767 79.1707 143.612 79.128 143.431 79.128C143.196 79.128 142.945 79.192 142.679 79.32C142.423 79.448 142.204 79.6027 142.023 79.784C141.745 80.0613 141.479 80.4187 141.223 80.856C140.977 81.2933 140.775 81.7253 140.615 82.152C140.465 82.5787 140.391 82.936 140.391 83.224C140.391 83.4907 140.471 83.6507 140.631 83.704ZM150.001 77.32C149.724 77.224 149.585 77.0427 149.585 76.776C149.585 76.5307 149.681 76.28 149.873 76.024C150.076 75.7573 150.294 75.5867 150.529 75.512C150.582 75.4907 150.625 75.48 150.657 75.48C150.7 75.48 150.742 75.48 150.785 75.48C150.966 75.48 151.116 75.5333 151.233 75.64C151.35 75.7467 151.409 75.8693 151.409 76.008C151.409 76.2 151.308 76.36 151.105 76.488C150.945 76.4667 150.79 76.504 150.641 76.6C150.492 76.696 150.358 76.8133 150.241 76.952C150.134 77.0907 150.054 77.2133 150.001 77.32ZM147.249 85.096C147.11 85.096 146.977 85.064 146.849 85C146.721 84.9467 146.614 84.8347 146.529 84.664C146.412 84.408 146.353 84.104 146.353 83.752C146.353 83.368 146.412 82.9413 146.529 82.472C146.646 81.992 146.801 81.5013 146.993 81C147.068 80.8187 147.164 80.5947 147.281 80.328C147.398 80.0613 147.537 79.7947 147.697 79.528C147.857 79.2613 148.038 79.0427 148.241 78.872C148.454 78.6907 148.684 78.6 148.929 78.6C149.046 78.6 149.212 78.6053 149.425 78.616C149.638 78.6267 149.793 78.6267 149.889 78.616C149.825 78.6587 149.75 78.744 149.665 78.872C149.58 79 149.5 79.1333 149.425 79.272C149.35 79.4 149.292 79.5013 149.249 79.576C148.972 80.1307 148.71 80.68 148.465 81.224C148.22 81.768 148.033 82.2907 147.905 82.792C147.884 82.8773 147.868 82.9627 147.857 83.048C147.846 83.1333 147.841 83.2133 147.841 83.288C147.841 83.5973 147.942 83.752 148.145 83.752C148.23 83.752 148.321 83.7307 148.417 83.688C148.524 83.6347 148.646 83.5547 148.785 83.448C149.03 83.256 149.244 83.0373 149.425 82.792C149.638 82.5147 149.841 82.2213 150.033 81.912C150.225 81.592 150.39 81.2987 150.529 81.032C150.582 80.9467 150.62 80.904 150.641 80.904C150.705 80.904 150.737 80.9947 150.737 81.176C150.737 81.2613 150.721 81.3627 150.689 81.48C150.668 81.5867 150.63 81.688 150.577 81.784C150.428 82.04 150.252 82.3227 150.049 82.632C149.846 82.9413 149.638 83.24 149.425 83.528C149.276 83.7307 149.078 83.9547 148.833 84.2C148.588 84.4453 148.326 84.6587 148.049 84.84C147.772 85.0107 147.505 85.096 147.249 85.096ZM150.814 85.096C150.515 85.096 150.291 84.9893 150.142 84.776C149.993 84.552 149.918 84.2533 149.918 83.88C149.918 83.8267 149.918 83.7733 149.918 83.72C149.918 83.6667 149.923 83.6133 149.934 83.56C149.987 83.1547 150.078 82.696 150.206 82.184C150.345 81.672 150.505 81.1333 150.686 80.568C150.793 80.248 150.926 79.848 151.086 79.368C151.257 78.8773 151.454 78.3547 151.678 77.8C151.902 77.2347 152.147 76.6747 152.414 76.12C152.691 75.5653 152.995 75.064 153.326 74.616C153.657 74.1573 154.003 73.7893 154.366 73.512C154.739 73.2347 155.134 73.096 155.55 73.096C155.891 73.096 156.126 73.1813 156.254 73.352C156.382 73.512 156.446 73.704 156.446 73.928C156.446 74.1627 156.403 74.4027 156.318 74.648C156.233 74.8827 156.147 75.08 156.062 75.24C155.87 75.624 155.619 76.056 155.31 76.536C155.001 77.016 154.675 77.464 154.334 77.88C154.131 78.1467 153.881 78.4453 153.582 78.776C153.283 79.1067 153.001 79.4107 152.734 79.688C152.478 79.9653 152.291 80.1573 152.174 80.264L151.918 81C151.843 81.2027 151.769 81.4427 151.694 81.72C151.63 81.9973 151.571 82.2747 151.518 82.552C151.475 82.8187 151.438 83.0533 151.406 83.256C151.395 83.2987 151.39 83.3413 151.39 83.384C151.39 83.4267 151.39 83.464 151.39 83.496C151.39 83.816 151.513 83.976 151.758 83.976C151.907 83.976 152.094 83.9067 152.318 83.768C152.531 83.64 152.734 83.4747 152.926 83.272C153.129 83.0587 153.273 82.8987 153.358 82.792C153.571 82.5147 153.774 82.2213 153.966 81.912C154.158 81.592 154.323 81.2987 154.462 81.032C154.515 80.9467 154.553 80.904 154.574 80.904C154.638 80.904 154.67 80.9947 154.67 81.176C154.67 81.2613 154.654 81.3627 154.622 81.48C154.601 81.5867 154.563 81.688 154.51 81.784C154.361 82.04 154.185 82.3227 153.982 82.632C153.779 82.9413 153.571 83.24 153.358 83.528C153.198 83.7413 152.974 83.9707 152.686 84.216C152.398 84.4613 152.089 84.6693 151.758 84.84C151.427 85.0107 151.113 85.096 150.814 85.096ZM152.494 79.352C153.027 78.7227 153.566 78.0507 154.11 77.336C154.665 76.6107 155.123 75.8747 155.486 75.128C155.507 75.0747 155.555 74.968 155.63 74.808C155.705 74.648 155.774 74.472 155.838 74.28C155.902 74.0773 155.934 73.9067 155.934 73.768C155.934 73.5867 155.865 73.496 155.726 73.496H155.614C155.475 73.496 155.31 73.592 155.118 73.784C154.937 73.976 154.75 74.232 154.558 74.552C154.313 74.9573 154.073 75.4267 153.838 75.96C153.603 76.4827 153.374 77.0373 153.15 77.624C152.926 78.2107 152.707 78.7867 152.494 79.352ZM155.743 85.128C155.252 85.128 154.826 84.9733 154.463 84.664C154.111 84.3547 153.935 83.8587 153.935 83.176C153.935 82.6747 154.026 82.152 154.207 81.608C154.388 81.064 154.644 80.5573 154.975 80.088C155.316 79.6187 155.727 79.2347 156.207 78.936C156.687 78.6373 157.226 78.488 157.823 78.488C158.314 78.488 158.692 78.584 158.959 78.776C159.236 78.9573 159.434 79.2027 159.551 79.512C159.668 79.8213 159.727 80.152 159.727 80.504C159.727 80.7707 159.695 81.0427 159.631 81.32C159.578 81.5867 159.498 81.8533 159.391 82.12C159.572 82.3333 159.802 82.44 160.079 82.44C160.378 82.44 160.655 82.328 160.911 82.104C161.06 81.976 161.194 81.816 161.311 81.624C161.439 81.4213 161.551 81.2347 161.647 81.064C161.679 81 161.716 80.968 161.759 80.968C161.812 80.968 161.839 81.0427 161.839 81.192C161.839 81.288 161.823 81.4 161.791 81.528C161.77 81.656 161.716 81.784 161.631 81.912C161.471 82.1893 161.306 82.4027 161.135 82.552C160.964 82.6907 160.772 82.8027 160.559 82.888C160.399 82.952 160.228 82.984 160.047 82.984C159.716 82.984 159.418 82.8827 159.151 82.68C159.066 82.8613 158.959 83.048 158.831 83.24C158.522 83.7627 158.122 84.2107 157.631 84.584C157.14 84.9467 156.511 85.128 155.743 85.128ZM156.351 84.52C156.596 84.52 156.831 84.44 157.055 84.28C157.29 84.1093 157.503 83.9013 157.695 83.656C157.887 83.4107 158.052 83.1547 158.191 82.888C158.34 82.6213 158.463 82.3867 158.559 82.184C158.196 81.8747 158.015 81.4853 158.015 81.016C158.015 80.7067 158.1 80.4667 158.271 80.296C158.442 80.1253 158.676 80.0507 158.975 80.072C158.964 79.8267 158.9 79.624 158.783 79.464C158.666 79.304 158.474 79.224 158.207 79.224C157.962 79.224 157.727 79.2987 157.503 79.448C157.29 79.5973 157.087 79.7893 156.895 80.024C156.714 80.248 156.548 80.4827 156.399 80.728C156.26 80.9627 156.143 81.176 156.047 81.368C155.908 81.6453 155.78 81.9813 155.663 82.376C155.546 82.7707 155.487 83.1387 155.487 83.48C155.487 83.7787 155.546 84.0293 155.663 84.232C155.791 84.424 156.02 84.52 156.351 84.52ZM163.747 85.112C163.405 85.112 163.16 84.968 163.011 84.68C162.893 84.424 162.835 84.12 162.835 83.768C162.835 83.3733 162.893 82.936 163.011 82.456C163.128 81.976 163.288 81.4853 163.491 80.984C163.565 80.8027 163.661 80.5733 163.779 80.296C163.907 80.0187 164.056 79.7467 164.227 79.48C164.077 79.608 163.901 79.7147 163.699 79.8C163.496 79.8747 163.299 79.912 163.107 79.912C162.957 79.912 162.835 79.8907 162.739 79.848C162.653 80.0187 162.515 80.296 162.323 80.68C162.131 81.064 161.875 81.5173 161.555 82.04C161.523 82.0933 161.491 82.0933 161.459 82.04C161.437 81.976 161.427 81.8907 161.427 81.784C161.427 81.6987 161.437 81.608 161.459 81.512C161.48 81.416 161.512 81.3253 161.555 81.24C161.661 81.0373 161.768 80.8293 161.875 80.616C161.981 80.392 162.077 80.1947 162.163 80.024C162.248 79.8533 162.296 79.7467 162.307 79.704C162.115 79.608 161.971 79.4747 161.875 79.304C161.779 79.1227 161.731 78.9467 161.731 78.776C161.731 78.6053 161.768 78.4507 161.843 78.312C161.928 78.1733 162.051 78.0667 162.211 77.992C162.307 77.96 162.397 77.944 162.483 77.944C162.717 77.944 162.909 78.0187 163.059 78.168C163.048 78.2107 163.037 78.2587 163.027 78.312C163.027 78.3547 163.027 78.4027 163.027 78.456C163.027 78.7867 163.16 79.032 163.427 79.192C163.693 79.352 163.981 79.4107 164.291 79.368C164.44 79.1547 164.611 78.968 164.803 78.808C164.995 78.648 165.203 78.568 165.427 78.568C165.544 78.568 165.709 78.5733 165.923 78.584C166.147 78.5947 166.307 78.5947 166.403 78.584C166.339 78.6267 166.264 78.712 166.179 78.84C166.093 78.968 166.013 79.1013 165.939 79.24C165.864 79.3787 165.805 79.4853 165.763 79.56C165.475 80.1147 165.208 80.6693 164.963 81.224C164.717 81.768 164.531 82.2907 164.403 82.792C164.381 82.888 164.36 82.9787 164.339 83.064C164.328 83.1387 164.323 83.2187 164.323 83.304C164.323 83.624 164.429 83.784 164.643 83.784C164.792 83.784 165.005 83.6773 165.283 83.464C165.528 83.2613 165.747 83.0373 165.939 82.792C166.152 82.5147 166.355 82.216 166.547 81.896C166.739 81.576 166.904 81.2827 167.043 81.016C167.096 80.9307 167.133 80.888 167.155 80.888C167.219 80.888 167.251 80.984 167.251 81.176C167.251 81.2507 167.24 81.3413 167.219 81.448C167.197 81.5547 167.16 81.656 167.107 81.752C166.947 82.0187 166.765 82.312 166.563 82.632C166.36 82.9413 166.152 83.2453 165.939 83.544C165.8 83.736 165.603 83.9547 165.347 84.2C165.101 84.4453 164.835 84.6587 164.547 84.84C164.269 85.0213 164.003 85.112 163.747 85.112Z" fill="#6C9BC5"/>
</g>
<defs>
<clipPath id="clip0_2842_29929">
<rect width="166" height="90" fill="white"/>
</clipPath>
</defs>
</svg>
