<svg width="166" height="90" viewBox="0 0 166 90" fill="none" xmlns="http://www.w3.org/2000/svg">
<g clip-path="url(#clip0_2842_24184)">
<path d="M33.7004 21.7668C34.71 22.0392 35.6455 22.2625 36.5636 22.5429C37.5485 22.8438 38.518 22.7677 39.6806 22.4337C39.8155 24.7031 40.1581 26.8629 39.9741 29.0214C39.6224 29.1053 39.4896 28.9956 39.4369 28.82C38.3397 25.163 35.5446 23.4643 32.1428 22.5498C30.1015 22.001 28.0039 21.9492 25.9218 22.3967C22.8983 23.0465 20.8737 24.8366 20.0984 27.8625C19.2902 31.017 20.1229 33.74 22.6102 35.8623C24.6575 37.609 27.1258 38.587 29.6126 39.4988C32.5759 40.5855 35.5817 41.5616 38.4056 43.0014C40.1878 43.91 41.8836 44.9517 43.3312 46.3486C47.2062 50.0878 48.0343 55.9811 45.4651 61.355C43.6344 65.1841 40.5325 67.5974 36.6729 69.0168C30.1599 71.4119 23.7374 71.2297 17.6262 67.7191C13.8569 65.5538 11.6696 62.2448 11.5145 57.8117C11.348 53.0535 13.753 49.7355 17.7711 47.5752C24.3533 44.0364 33.8724 45.5765 38.7185 51.9628C39.382 52.8371 39.8978 53.7804 40.0251 54.89C39.758 54.9692 39.6474 54.8701 39.5963 54.7472C37.9226 50.7224 34.7018 48.5783 30.7072 47.4C27.3287 46.4035 23.9398 46.3553 20.5892 47.5163C16.6581 48.8784 13.8223 51.3635 13.1026 55.649C12.3874 59.9079 13.9518 63.3409 17.2916 66.014C19.943 68.1361 23.0468 69.0408 26.3302 69.379C30.8973 69.8495 35.0926 68.9681 38.7704 65.9538C44.2566 61.4574 45.0207 50.8285 37.3789 46.4085C34.9856 45.0243 32.4383 44.0198 29.8507 43.0966C26.5859 41.9316 23.2994 40.8247 20.4079 38.8202C16.9228 36.404 15.3719 32.9209 16.2563 29.1216C17.0973 25.509 19.5526 23.3235 22.8884 22.0701C26.4134 20.7456 30.0106 20.8248 33.7004 21.7668Z" fill="black"/>
<path d="M61.2632 44.5669C60.0749 47.9946 58.9373 51.3538 57.7333 54.6889C57.4363 55.5118 57.3795 56.1306 58.2418 56.5826C58.3939 56.6623 58.4805 56.8253 58.462 57.0817C58.0415 57.5586 57.6133 56.9783 57.1144 57.0274C56.5709 57.7614 56.5565 58.5877 56.9739 59.395C57.4162 60.2506 58.4555 60.1156 59.1466 60.7336C56.7591 60.7336 54.3716 60.7336 51.903 60.7336C52.0887 60.1389 52.5278 60.2262 52.8541 60.1339C54.3237 59.7184 55.7788 57.8813 55.8531 56.3795C55.8738 55.9603 55.6045 55.7606 55.371 55.5207C52.3849 52.455 51.5321 48.7833 52.6877 44.7488C53.9239 40.4333 56.9894 37.876 61.2712 36.8425C62.3337 36.5861 62.9109 36.1917 63.2353 35.1239C63.9656 32.7201 64.7842 30.3403 65.6615 27.9864C66.0332 26.989 65.9372 26.1522 65.4577 25.2478C64.6216 23.6703 63.5166 22.5039 61.6289 22.3348C61.3082 22.306 60.9229 22.3295 60.7493 21.8301C61.1303 21.2494 61.7798 21.4835 62.3001 21.419C65.2711 21.0506 67.6767 22.5288 68.8745 25.2596C73.5347 35.884 78.1929 46.5096 82.9314 57.0988C84.9625 61.6377 87.9869 65.3746 92.4606 67.7378C95.4012 69.2911 98.5358 70.0576 101.876 69.8806C102.216 69.8626 102.559 69.8671 102.9 69.8751C102.952 69.8763 103.002 69.9539 103.109 70.0425C102.937 70.559 102.439 70.4314 102.1 70.4708C93.886 71.4224 85.2636 67.9186 80.7226 59.9759C78.3421 55.8121 76.7382 51.2812 74.7538 46.9299C73.8969 45.0509 73.0841 43.1513 72.2698 41.253C72.0583 40.7598 71.7397 40.3815 71.3283 40.0528C69.414 38.5238 67.2081 37.7677 64.8021 37.501C64.0346 37.4159 63.6278 37.6477 63.3783 38.4375C62.7357 40.4719 61.9925 42.4743 61.2632 44.5669ZM53.6438 50.2342C54.1723 51.9425 54.8295 53.5756 56.3425 54.9462C58.34 49.1645 60.2867 43.5301 62.2333 37.8956C62.125 37.8295 62.0167 37.7634 61.9085 37.6974C59.4321 38.1797 57.3312 39.3913 55.7066 41.3384C53.5907 43.8743 53.0523 46.849 53.6438 50.2342ZM70.5982 37.337C69.3828 34.5143 68.1675 31.6916 66.8345 28.596C65.8631 31.3762 64.997 33.8549 64.0778 36.4858C66.6763 36.5538 68.9154 37.2583 71.1729 38.6893C70.9203 38.099 70.7868 37.7871 70.5982 37.337Z" fill="black"/>
<path d="M89.6856 48.7304C92.6036 57.1064 100.126 62.2865 108.584 61.7984C110.21 61.7045 111.795 61.3752 113.237 60.6034C115.3 59.5 115.756 58.3833 115.378 56.5455C114.906 54.2518 116.654 52.6573 118.769 53.2892C120.34 53.7587 121.054 55.3025 120.372 56.8168C119.814 58.0548 118.782 58.8804 117.738 59.6627C115.073 61.6597 111.985 62.5685 108.741 62.9072C102.687 63.5394 97.1428 62.1112 92.3104 58.3369C87.6557 54.7014 85.0932 49.8964 84.5664 43.9624C83.4974 31.9232 92.1598 22.9869 103.177 21.6548C107.489 21.1335 111.574 21.8987 115.561 23.4767C116.643 23.905 117.708 24.4525 119.115 23.8701C119.115 26.1728 119.115 28.2988 119.115 30.4432C118.86 30.5215 118.807 30.2967 118.737 30.1065C117.479 26.6573 114.888 24.5925 111.549 23.5144C102.99 20.7505 94.0014 24.3939 90.1608 32.8897C88.8438 35.803 88.425 38.8734 88.5331 42.0575C88.6098 44.3177 89.0016 46.5032 89.6856 48.7304Z" fill="black"/>
<path d="M143.707 24.8985C143.312 24.4668 142.882 24.2948 142.384 24.2342C142.063 24.1951 141.59 24.2182 141.656 23.7267C141.715 23.2828 142.172 23.3519 142.501 23.3477C143.701 23.3323 144.902 23.3339 146.102 23.3326C147.2 23.3314 148.298 23.3315 149.395 23.3387C149.627 23.3402 149.889 23.3055 150.006 23.6197C149.89 24.1052 149.438 24.0288 149.104 24.1209C148.288 24.3465 147.855 24.8536 147.687 25.6982C147.469 26.7973 147.561 27.8981 147.559 28.9953C147.541 38.058 147.528 47.1208 147.564 56.1833C147.571 57.84 147.392 59.7264 149.881 60.0448C149.162 60.5749 143.099 60.648 142.104 60.2468C142.068 60.0729 142.178 59.9994 142.312 59.9469C143.966 59.2987 144.168 59.0513 144.178 57.2198C144.2 53.0504 144.186 48.8808 144.194 44.7114C144.196 43.8513 144.206 42.99 144.256 42.1318C144.295 41.4545 144.022 41.2341 143.357 41.2417C140.476 41.2749 137.594 41.2712 134.713 41.2729C132.895 41.2739 131.078 41.2654 129.26 41.2503C128.897 41.2473 128.413 41.3241 128.389 40.7804C128.36 40.141 128.882 40.2551 129.281 40.248C133.803 40.1682 138.325 40.0941 142.846 40.2764C143.797 40.3148 144.197 40.0471 144.194 39.0197C144.185 35.198 144.26 31.3762 144.28 27.5543C144.285 26.6626 144.255 25.7584 143.707 24.8985Z" fill="black"/>
<path d="M135.309 85.128C134.903 85.128 134.594 85.0213 134.381 84.808C134.167 84.5947 134.023 84.3227 133.949 83.992C133.874 83.6613 133.826 83.32 133.805 82.968C133.805 82.7653 133.815 82.5253 133.837 82.248C133.858 81.9707 133.885 81.704 133.917 81.448C133.959 81.1813 133.991 80.984 134.013 80.856H130.349C129.666 81.5707 129.015 82.2693 128.397 82.952C127.789 83.624 127.191 84.3067 126.605 85H125.005C125.282 84.744 125.645 84.4027 126.093 83.976C126.551 83.5387 127.069 83.0427 127.645 82.488C128.221 81.9333 128.818 81.3467 129.437 80.728C130.066 80.0987 130.695 79.4693 131.325 78.84C131.954 78.2 132.546 77.5867 133.101 77C133.666 76.4027 134.167 75.864 134.605 75.384C134.818 75.1493 135.015 74.9147 135.197 74.68C135.389 74.4347 135.602 74.232 135.837 74.072C136.071 73.912 136.359 73.832 136.701 73.832H137.853C137.671 74.0027 137.49 74.2907 137.309 74.696C137.127 75.1013 136.962 75.5387 136.813 76.008C136.674 76.4773 136.557 76.904 136.461 77.288C136.322 77.864 136.178 78.488 136.029 79.16C135.89 79.832 135.778 80.4987 135.693 81.16C135.607 81.8213 135.581 82.4347 135.613 83C135.623 83.2027 135.661 83.416 135.725 83.64C135.799 83.8533 135.901 84.04 136.029 84.2C136.167 84.3493 136.338 84.424 136.541 84.424C136.722 84.424 136.919 84.3547 137.133 84.216L137.229 84.36C137.09 84.5733 136.823 84.7547 136.429 84.904C136.045 85.0533 135.671 85.128 135.309 85.128ZM128.909 77.016C128.738 76.8347 128.61 76.648 128.525 76.456C128.45 76.264 128.413 76.0827 128.413 75.912C128.413 75.6987 128.455 75.496 128.541 75.304C128.637 75.1013 128.749 74.9307 128.877 74.792C129.133 74.504 129.453 74.2907 129.837 74.152C130.221 74.0133 130.626 73.928 131.053 73.896C131.49 73.8533 131.906 73.832 132.301 73.832H135.885C135.661 74.056 135.319 74.232 134.861 74.36C134.413 74.4773 133.922 74.568 133.389 74.632C132.855 74.6853 132.338 74.7387 131.837 74.792C131.346 74.8347 130.941 74.8933 130.621 74.968C130.055 75.096 129.623 75.3413 129.325 75.704C129.037 76.0667 128.898 76.504 128.909 77.016ZM131.053 80.056H134.125C134.253 79.352 134.402 78.648 134.573 77.944C134.754 77.24 134.914 76.6213 135.053 76.088C134.402 76.7067 133.735 77.352 133.053 78.024C132.381 78.6853 131.714 79.3627 131.053 80.056ZM142.285 85.096C141.965 85.096 141.741 84.9787 141.613 84.744C141.495 84.4987 141.437 84.1947 141.437 83.832C141.437 83.6613 141.447 83.4907 141.469 83.32C141.49 83.1387 141.517 82.9573 141.549 82.776C141.57 82.616 141.613 82.424 141.677 82.2C141.741 81.9653 141.815 81.7147 141.901 81.448C141.698 81.8533 141.463 82.2693 141.197 82.696C140.93 83.112 140.637 83.5013 140.317 83.864C140.007 84.216 139.682 84.504 139.341 84.728C139.01 84.9413 138.674 85.048 138.333 85.048C138.034 85.048 137.778 84.9413 137.565 84.728C137.362 84.504 137.261 84.12 137.261 83.576C137.261 83.0213 137.357 82.4507 137.549 81.864C137.741 81.2773 138.007 80.7333 138.349 80.232C138.701 79.72 139.111 79.3093 139.581 79C140.061 78.6907 140.583 78.536 141.149 78.536C141.383 78.536 141.645 78.584 141.933 78.68C142.221 78.776 142.439 78.9627 142.589 79.24C142.642 79.1547 142.685 79.0693 142.717 78.984C142.749 78.8987 142.781 78.824 142.813 78.76C143.069 78.1947 143.287 77.6613 143.469 77.16C143.65 76.6587 143.81 76.2693 143.949 75.992C144.13 75.6293 144.274 75.3573 144.381 75.176C144.487 74.984 144.583 74.8507 144.669 74.776C144.765 74.7013 144.871 74.648 144.989 74.616C145.085 74.5947 145.191 74.5787 145.309 74.568C145.426 74.5573 145.549 74.552 145.677 74.552C145.805 74.552 145.949 74.552 146.109 74.552C146.279 74.552 146.386 74.5467 146.429 74.536C146.247 74.664 146.034 74.9253 145.789 75.32C145.543 75.7147 145.287 76.1893 145.021 76.744C144.754 77.2987 144.493 77.8907 144.237 78.52C143.991 79.1387 143.762 79.7573 143.549 80.376C143.346 80.984 143.181 81.5387 143.053 82.04C142.935 82.5413 142.877 82.9467 142.877 83.256C142.877 83.5973 142.973 83.768 143.165 83.768C143.293 83.768 143.442 83.704 143.613 83.576C143.794 83.448 143.959 83.304 144.109 83.144C144.258 82.984 144.365 82.8667 144.429 82.792C144.642 82.5147 144.845 82.2213 145.036 81.912C145.229 81.592 145.394 81.2933 145.533 81.016C145.586 80.9307 145.623 80.888 145.645 80.888C145.719 80.888 145.757 80.984 145.757 81.176C145.757 81.3787 145.703 81.5707 145.597 81.752C145.447 82.008 145.266 82.296 145.053 82.616C144.85 82.9253 144.642 83.2293 144.429 83.528C144.279 83.72 144.082 83.9387 143.837 84.184C143.602 84.4293 143.346 84.6427 143.069 84.824C142.802 85.0053 142.541 85.096 142.285 85.096ZM139.053 83.704C139.085 83.7147 139.133 83.72 139.197 83.72C139.495 83.72 139.842 83.5227 140.237 83.128C140.642 82.7227 141.047 82.1947 141.453 81.544C141.538 81.416 141.639 81.2347 141.757 81C141.874 80.7653 141.997 80.5093 142.125 80.232C142.263 79.944 142.391 79.6773 142.509 79.432C142.434 79.3253 142.338 79.2507 142.221 79.208C142.114 79.1653 141.997 79.144 141.869 79.144C141.634 79.144 141.383 79.208 141.117 79.336C140.85 79.4533 140.626 79.6027 140.445 79.784C140.167 80.0613 139.901 80.4187 139.645 80.856C139.399 81.2933 139.197 81.7253 139.037 82.152C138.887 82.5787 138.812 82.936 138.812 83.224C138.812 83.4907 138.893 83.6507 139.053 83.704ZM152.886 85.096C152.523 85.096 152.273 84.9893 152.134 84.776C152.006 84.552 151.942 84.296 151.942 84.008C151.942 83.6987 151.99 83.3413 152.086 82.936C152.193 82.52 152.321 82.0933 152.47 81.656C152.63 81.208 152.79 80.792 152.95 80.408C153.003 80.28 153.051 80.1413 153.094 79.992C153.147 79.8427 153.174 79.7093 153.174 79.592C153.174 79.3787 153.078 79.272 152.886 79.272C152.811 79.272 152.726 79.288 152.63 79.32C152.534 79.3413 152.422 79.3893 152.294 79.464C152.07 79.5707 151.857 79.72 151.654 79.912C151.451 80.0933 151.307 80.232 151.222 80.328C150.817 80.8507 150.507 81.416 150.294 82.024C150.091 82.632 149.878 83.2507 149.654 83.88C149.59 84.0613 149.526 84.248 149.462 84.44C149.398 84.632 149.339 84.8187 149.286 85H147.718C147.899 84.488 148.081 83.9813 148.262 83.48C148.454 82.968 148.646 82.4613 148.838 81.96C148.955 81.672 149.062 81.3947 149.158 81.128C149.254 80.8507 149.339 80.5947 149.414 80.36C149.457 80.2427 149.494 80.12 149.526 79.992C149.558 79.864 149.574 79.7467 149.574 79.64C149.574 79.3947 149.467 79.272 149.254 79.272C149.179 79.272 149.089 79.288 148.982 79.32C148.886 79.3413 148.769 79.3893 148.63 79.464C148.406 79.5707 148.193 79.72 147.99 79.912C147.787 80.0933 147.649 80.232 147.574 80.328C147.435 80.4987 147.302 80.6907 147.174 80.904C147.046 81.1067 146.934 81.3147 146.838 81.528C146.625 81.9867 146.454 82.424 146.326 82.84C146.209 83.2453 146.097 83.592 145.99 83.88C145.926 84.0613 145.862 84.248 145.798 84.44C145.734 84.632 145.675 84.8187 145.622 85H144.07C144.07 85 144.107 84.8667 144.182 84.6C144.257 84.3333 144.347 84.0667 144.454 83.8L145.494 81.144C145.526 81.0587 145.574 80.92 145.638 80.728C145.713 80.5253 145.787 80.3067 145.862 80.072C145.937 79.8267 146.001 79.592 146.054 79.368C146.107 79.1333 146.134 78.9413 146.134 78.792C146.134 78.696 146.123 78.632 146.102 78.6C146.198 78.6 146.305 78.6 146.422 78.6C146.55 78.5893 146.667 78.584 146.774 78.584C146.923 78.584 147.062 78.5893 147.19 78.6C147.329 78.6107 147.419 78.6373 147.462 78.68C147.579 78.7653 147.638 78.8933 147.638 79.064C147.638 79.2027 147.611 79.3413 147.558 79.48C147.505 79.608 147.467 79.7147 147.446 79.8C147.595 79.6613 147.761 79.528 147.942 79.4C148.123 79.272 148.385 79.1067 148.726 78.904C148.939 78.7867 149.19 78.6907 149.478 78.616C149.766 78.5413 150.027 78.504 150.262 78.504C150.827 78.504 151.11 78.7387 151.11 79.208C151.11 79.4 151.051 79.656 150.934 79.976C151.158 79.752 151.387 79.56 151.622 79.4C151.867 79.2293 152.123 79.064 152.39 78.904C152.603 78.7867 152.854 78.6907 153.142 78.616C153.43 78.5413 153.691 78.504 153.926 78.504C154.491 78.504 154.774 78.744 154.774 79.224C154.774 79.3307 154.753 79.4533 154.71 79.592C154.678 79.7307 154.63 79.8853 154.566 80.056C154.502 80.2267 154.411 80.4613 154.294 80.76C154.177 81.048 154.054 81.3573 153.926 81.688C153.809 82.008 153.707 82.3173 153.622 82.616C153.547 82.904 153.51 83.144 153.51 83.336C153.51 83.4533 153.526 83.56 153.558 83.656C153.601 83.7413 153.675 83.784 153.782 83.784C153.857 83.784 153.963 83.7467 154.102 83.672C154.294 83.5547 154.486 83.4 154.678 83.208C154.87 83.016 154.998 82.8773 155.062 82.792C155.275 82.5147 155.478 82.2213 155.67 81.912C155.862 81.592 156.027 81.2987 156.166 81.032C156.219 80.9467 156.257 80.904 156.278 80.904C156.342 80.904 156.374 80.9947 156.374 81.176C156.374 81.2613 156.358 81.3627 156.326 81.48C156.305 81.5867 156.267 81.688 156.214 81.784C156.065 82.04 155.889 82.3227 155.686 82.632C155.483 82.9413 155.275 83.24 155.062 83.528C154.913 83.7307 154.715 83.9547 154.47 84.2C154.225 84.4453 153.963 84.6587 153.686 84.84C153.409 85.0107 153.142 85.096 152.886 85.096ZM159.111 77.32C158.833 77.224 158.695 77.0427 158.695 76.776C158.695 76.5307 158.791 76.28 158.983 76.024C159.185 75.7573 159.404 75.5867 159.639 75.512C159.692 75.4907 159.735 75.48 159.766 75.48C159.809 75.48 159.852 75.48 159.895 75.48C160.076 75.48 160.225 75.5333 160.343 75.64C160.46 75.7467 160.519 75.8693 160.519 76.008C160.519 76.2 160.417 76.36 160.215 76.488C160.055 76.4667 159.9 76.504 159.751 76.6C159.601 76.696 159.468 76.8133 159.351 76.952C159.244 77.0907 159.164 77.2133 159.111 77.32ZM156.359 85.096C156.22 85.096 156.087 85.064 155.959 85C155.831 84.9467 155.724 84.8347 155.639 84.664C155.521 84.408 155.463 84.104 155.463 83.752C155.463 83.368 155.521 82.9413 155.639 82.472C155.756 81.992 155.911 81.5013 156.103 81C156.177 80.8187 156.273 80.5947 156.391 80.328C156.508 80.0613 156.647 79.7947 156.807 79.528C156.967 79.2613 157.148 79.0427 157.351 78.872C157.564 78.6907 157.793 78.6 158.039 78.6C158.156 78.6 158.321 78.6053 158.535 78.616C158.748 78.6267 158.903 78.6267 158.999 78.616C158.935 78.6587 158.86 78.744 158.775 78.872C158.689 79 158.609 79.1333 158.535 79.272C158.46 79.4 158.401 79.5013 158.359 79.576C158.081 80.1307 157.82 80.68 157.575 81.224C157.329 81.768 157.143 82.2907 157.015 82.792C156.993 82.8773 156.977 82.9627 156.967 83.048C156.956 83.1333 156.951 83.2133 156.951 83.288C156.951 83.5973 157.052 83.752 157.255 83.752C157.34 83.752 157.431 83.7307 157.527 83.688C157.633 83.6347 157.756 83.5547 157.895 83.448C158.14 83.256 158.353 83.0373 158.535 82.792C158.748 82.5147 158.951 82.2213 159.143 81.912C159.335 81.592 159.5 81.2987 159.639 81.032C159.692 80.9467 159.729 80.904 159.751 80.904C159.815 80.904 159.847 80.9947 159.847 81.176C159.847 81.2613 159.831 81.3627 159.799 81.48C159.777 81.5867 159.74 81.688 159.687 81.784C159.537 82.04 159.361 82.3227 159.159 82.632C158.956 82.9413 158.748 83.24 158.535 83.528C158.385 83.7307 158.188 83.9547 157.943 84.2C157.697 84.4453 157.436 84.6587 157.159 84.84C156.881 85.0107 156.615 85.096 156.359 85.096ZM163.331 85.096C162.969 85.096 162.718 84.9893 162.579 84.776C162.451 84.552 162.387 84.296 162.387 84.008C162.387 83.656 162.457 83.2347 162.595 82.744C162.734 82.2427 162.894 81.7413 163.075 81.24C163.267 80.728 163.438 80.2747 163.587 79.88C163.63 79.784 163.651 79.6827 163.651 79.576C163.651 79.4587 163.614 79.3733 163.539 79.32C163.465 79.2667 163.369 79.24 163.251 79.24C163.081 79.24 162.889 79.2933 162.675 79.4C162.345 79.5707 162.03 79.8427 161.731 80.216C161.433 80.5893 161.193 80.9787 161.011 81.384C160.809 81.8427 160.627 82.3013 160.467 82.76C160.307 83.2187 160.179 83.592 160.083 83.88C160.019 84.0613 159.961 84.248 159.907 84.44C159.854 84.632 159.801 84.8187 159.747 85H158.195C158.195 85 158.233 84.8667 158.307 84.6C158.371 84.3333 158.457 84.0667 158.563 83.8C158.745 83.3307 158.926 82.8613 159.107 82.392C159.299 81.9227 159.465 81.5067 159.603 81.144C159.646 81.0373 159.71 80.84 159.795 80.552C159.891 80.2533 159.977 79.944 160.051 79.624C160.137 79.304 160.179 79.0427 160.179 78.84C160.179 78.7227 160.163 78.6427 160.131 78.6C160.227 78.6 160.334 78.6 160.451 78.6C160.579 78.5893 160.697 78.584 160.803 78.584C160.953 78.584 161.091 78.5893 161.219 78.6C161.358 78.6107 161.449 78.6373 161.491 78.68C161.619 78.776 161.683 78.9147 161.683 79.096C161.683 79.224 161.657 79.352 161.603 79.48C161.561 79.608 161.529 79.7147 161.507 79.8C161.657 79.6613 161.811 79.528 161.971 79.4C162.131 79.272 162.377 79.1067 162.707 78.904C162.899 78.7867 163.139 78.6907 163.427 78.616C163.715 78.5413 163.977 78.504 164.211 78.504C164.819 78.504 165.123 78.7867 165.123 79.352C165.123 79.448 165.113 79.5547 165.091 79.672C165.081 79.7893 165.049 79.9173 164.995 80.056C164.942 80.2267 164.857 80.4613 164.739 80.76C164.622 81.0587 164.499 81.3787 164.371 81.72C164.254 82.0507 164.153 82.3653 164.067 82.664C163.982 82.9627 163.939 83.2027 163.939 83.384C163.939 83.64 164.035 83.768 164.227 83.768C164.398 83.768 164.611 83.6613 164.867 83.448C165.113 83.2453 165.326 83.0267 165.507 82.792C165.731 82.5147 165.934 82.2213 166.115 81.912C166.307 81.592 166.473 81.2987 166.611 81.032C166.665 80.9467 166.702 80.904 166.723 80.904C166.787 80.904 166.819 80.9947 166.819 81.176C166.819 81.2613 166.803 81.3627 166.771 81.48C166.75 81.5867 166.713 81.688 166.659 81.784C166.51 82.04 166.334 82.3227 166.131 82.632C165.929 82.9413 165.721 83.24 165.507 83.528C165.358 83.7307 165.161 83.9547 164.915 84.2C164.67 84.4453 164.409 84.6587 164.131 84.84C163.854 85.0107 163.587 85.096 163.331 85.096Z" fill="#F76D0B"/>
</g>
<defs>
<clipPath id="clip0_2842_24184">
<rect width="166" height="90" fill="white"/>
</clipPath>
</defs>
</svg>
