<svg width="145" height="79" viewBox="0 0 145 79" fill="none" xmlns="http://www.w3.org/2000/svg">
<path d="M29.4371 19.107C30.319 19.3461 31.1361 19.5421 31.9382 19.7882C32.7984 20.0523 33.6453 19.9855 34.6608 19.6924C34.7787 21.6844 35.0779 23.5802 34.9172 25.4749C34.61 25.5485 34.494 25.4522 34.4479 25.2981C33.4895 22.0881 31.0481 20.597 28.0766 19.7942C26.2936 19.3126 24.4613 19.2671 22.6426 19.6599C20.0016 20.2302 18.2331 21.8016 17.5559 24.4577C16.8499 27.2266 17.5773 29.6168 19.75 31.4797C21.5382 33.0129 23.6943 33.8713 25.8665 34.6718C28.4549 35.6256 31.0804 36.4824 33.5472 37.7462C35.1039 38.5438 36.5852 39.4582 37.8496 40.6843C41.2344 43.9665 41.9577 49.1396 39.7135 53.8567C38.1145 57.2177 35.4049 59.336 32.0336 60.5819C26.3446 62.6843 20.7346 62.5244 15.3964 59.4429C12.104 57.5423 10.1934 54.6377 10.0579 50.7464C9.91245 46.5698 12.0132 43.6573 15.523 41.761C21.2725 38.6548 29.5874 40.0066 33.8205 45.6124C34.4 46.3798 34.8506 47.2078 34.9617 48.1818C34.7284 48.2513 34.6318 48.1643 34.5872 48.0564C33.1253 44.5235 30.3119 42.6415 26.8226 41.6073C23.8715 40.7325 20.9113 40.6902 17.9846 41.7093C14.5508 42.9049 12.0738 45.0863 11.4451 48.848C10.8204 52.5864 12.1869 55.5998 15.1042 57.9462C17.4202 59.8089 20.1313 60.6031 22.9993 60.8999C26.9887 61.3129 30.6533 60.5392 33.8657 57.8934C38.6579 53.9465 39.3254 44.6167 32.6503 40.7369C30.5598 39.5219 28.3347 38.6402 26.0745 37.8298C23.2227 36.8072 20.3519 35.8356 17.8262 34.076C14.782 31.9552 13.4273 28.8978 14.1999 25.5629C14.9345 22.3918 17.0792 20.4735 19.993 19.3732C23.072 18.2106 26.2141 18.2801 29.4371 19.107Z" fill="white"/>
<path d="M53.5131 39.1215C52.4751 42.1303 51.4814 45.0789 50.4297 48.0064C50.1702 48.7287 50.1206 49.2719 50.8738 49.6686C51.0067 49.7386 51.0824 49.8817 51.0662 50.1067C50.6989 50.5254 50.3248 50.016 49.8891 50.0591C49.4143 50.7033 49.4018 51.4287 49.7664 52.1373C50.1527 52.8883 51.0606 52.7698 51.6642 53.3123C49.5787 53.3123 47.4932 53.3123 45.3369 53.3123C45.4992 52.7903 45.8827 52.8669 46.1678 52.7859C47.4515 52.4211 48.7224 50.8086 48.7873 49.4904C48.8054 49.1224 48.5702 48.9471 48.3662 48.7366C45.7579 46.0455 45.0129 42.8226 46.0224 39.2812C47.1022 35.4932 49.7799 33.2484 53.52 32.3412C54.4481 32.1161 54.9523 31.7699 55.2357 30.8326C55.8735 28.7227 56.5886 26.6338 57.3549 24.5675C57.6796 23.692 57.5957 22.9575 57.1769 22.1636C56.4466 20.779 55.4814 19.7551 53.8325 19.6067C53.5524 19.5814 53.2158 19.602 53.0641 19.1637C53.397 18.654 53.9642 18.8594 54.4187 18.8028C57.0139 18.4795 59.1152 19.777 60.1615 22.174C64.2321 31.4999 68.301 40.8268 72.4401 50.1218C74.2142 54.1059 76.856 57.3861 80.7638 59.4604C83.3324 60.8239 86.0704 61.4967 88.9878 61.3414C89.2854 61.3255 89.5845 61.3295 89.8826 61.3365C89.928 61.3376 89.9718 61.4057 90.0653 61.4835C89.9152 61.9368 89.4802 61.8248 89.1836 61.8594C82.0089 62.6947 74.4773 59.6191 70.5107 52.6472C68.4313 48.9924 67.0304 45.0152 65.297 41.1957C64.5485 39.5463 63.8385 37.879 63.1273 36.2127C62.9425 35.7797 62.6642 35.4477 62.3048 35.1592C60.6327 33.817 58.7058 33.1534 56.6043 32.9192C55.9338 32.8445 55.5785 33.048 55.3606 33.7412C54.7993 35.5271 54.1501 37.2847 53.5131 39.1215ZM46.8575 44.0962C47.3192 45.5956 47.8932 47.0291 49.2149 48.2323C50.9597 43.1572 52.66 38.2114 54.3604 33.2656C54.2658 33.2076 54.1712 33.1496 54.0767 33.0916C51.9136 33.515 50.0785 34.5785 48.6594 36.2876C46.8111 38.5136 46.3409 41.1247 46.8575 44.0962ZM61.6671 32.7753C60.6055 30.2976 59.5439 27.8199 58.3796 25.1026C57.531 27.5431 56.7745 29.7187 55.9716 32.0281C58.2413 32.0878 60.1972 32.7062 62.1691 33.9623C61.9484 33.4441 61.8318 33.1703 61.6671 32.7753Z" fill="white"/>
<path d="M78.3399 42.7763C80.8887 50.1285 87.4593 54.6755 94.8477 54.247C96.2683 54.1647 97.652 53.8756 98.912 53.1982C100.714 52.2296 101.112 51.2494 100.782 49.6362C100.37 47.6228 101.897 46.2232 103.744 46.7779C105.117 47.19 105.74 48.5451 105.144 49.8744C104.657 50.961 103.756 51.6857 102.844 52.3724C100.515 54.1254 97.818 54.923 94.9845 55.2204C89.6967 55.7753 84.8537 54.5216 80.6326 51.2086C76.5668 48.0175 74.3285 43.7998 73.8683 38.5911C72.9346 28.0233 80.5011 20.1792 90.1249 19.0099C93.8912 18.5523 97.4596 19.224 100.942 20.6092C101.887 20.9851 102.818 21.4657 104.047 20.9544C104.047 22.9757 104.047 24.8419 104.047 26.7242C103.824 26.793 103.777 26.5956 103.717 26.4286C102.617 23.401 100.354 21.5886 97.4377 20.6423C89.9616 18.2161 82.1097 21.4142 78.755 28.8716C77.6047 31.4289 77.2388 34.124 77.3332 36.919C77.4002 38.9029 77.7425 40.8213 78.3399 42.7763Z" fill="white"/>
<path d="M125.527 21.8555C125.182 21.4765 124.806 21.3255 124.372 21.2724C124.092 21.2381 123.678 21.2583 123.735 20.8269C123.788 20.4373 124.186 20.4979 124.474 20.4942C125.522 20.4807 126.571 20.4821 127.619 20.481C128.578 20.4799 129.537 20.48 130.496 20.4863C130.698 20.4876 130.927 20.4572 131.029 20.733C130.928 21.1592 130.533 21.0921 130.242 21.1729C129.529 21.3709 129.151 21.816 129.004 22.5574C128.813 23.5222 128.894 24.4885 128.892 25.4516C128.876 33.4066 128.865 41.3617 128.896 49.3166C128.902 50.7708 128.746 52.4266 130.92 52.7061C130.292 53.1715 124.996 53.2356 124.127 52.8835C124.096 52.7308 124.191 52.6663 124.308 52.6202C125.754 52.0512 125.93 51.8341 125.938 50.2264C125.958 46.5666 125.946 42.9067 125.953 39.2468C125.954 38.4918 125.963 37.7358 126.007 36.9825C126.041 36.388 125.802 36.1945 125.221 36.2012C122.705 36.2303 120.188 36.227 117.671 36.2285C116.083 36.2295 114.496 36.222 112.908 36.2087C112.591 36.2061 112.168 36.2735 112.147 35.7962C112.122 35.235 112.578 35.3351 112.926 35.329C116.876 35.2589 120.826 35.1938 124.775 35.3539C125.606 35.3875 125.955 35.1526 125.953 34.2507C125.945 30.8961 126.01 27.5414 126.028 24.1867C126.032 23.4039 126.006 22.6103 125.527 21.8555Z" fill="white"/>
</svg>
